<svg xmlns="http://www.w3.org/2000/svg" viewBox="0 0 96 96" role="img" aria-label="Cloud Learning favicon">
  <g transform="translate(4 2) scale(1.0)" fill="#ffffff">
    <path d="M80.6,43c1.3-3.9,0.6-9.3-2.8-12.5c-3.6-3.5-9.7-4.5-14.3-2.2c-3.6-6.8-12.3-11.7-21.1-11.7c-2.3,0-4.5,0.3-6.5,1c-9.5,3-18.4,11.7-18.1,23.1c-1-0.2-2.1-0.3-3.2-0.3c-7.2,0-13,4.9-13.8,11.7c-0.4,3.3,0.6,6.3,2.8,8.7c3.3,3.6,9.2,5.8,16,5.8h13.8v-3.2H19.7c-5.9,0-11-1.8-13.6-4.7c-1.6-1.7-2.2-3.8-2-6.2c0.6-5.1,5-8.9,10.6-8.9c1.5,0,3,0.3,4.4,0.8l2.5,1l-0.4-2.7c-1.5-10.7,6.7-19.2,15.7-22c1.8-0.6,3.7-0.8,5.6-0.8c8.1,0,16.4,5,18.9,11.4l0.8,2l1.7-1.2c1.6-1.1,3.3-1.7,5.2-1.7c2.4,0,4.9,1,6.6,2.6c2.8,2.7,3,7.8,1.4,10.5l-1.3,2.2l2.5,0.3c3.9,0.4,8.1,4.7,7.8,9.9c-0.3,4.4-4.2,7.8-9.2,7.8H75v3.2h1.7c6.7,0,12-4.6,12.4-10.8C89.5,49.6,85.2,44.5,80.6,43z"></path>
    <path d="M51,66.3l-15.3-7v6.9c1,1.8,8.1,4.7,15.3,5.1c7.3-0.3,14.3-3.3,15.3-5.1v-6.9L51,66.3z"></path>
    <path d="M51,41.4L23.2,51.6L51,64.3l27.8-12.7L51,41.4z M51,51.7c-1.3,0-2.2-1.3-2.3-1.9l0.2-0.2c0,0,0.9,0.5,2.1,0.5c1.3,0,2.1-0.5,2.1-0.5l0.2,0.2C53.2,50.4,52.3,51.7,51,51.7z"></path>
    <rect x="68" y="54.6" width="1.3" height="15.5"></rect>
    <rect x="72.3" y="53.2" width="1.3" height="15.5"></rect>
    <rect x="70.2" y="53.8" width="1.3" height="17.1"></rect>
  </g>
</svg>